<?xml version="1.0" standalone="no"?>
<!DOCTYPE svg PUBLIC "-//W3C//DTD SVG 1.1//EN" "http://www.w3.org/Graphics/SVG/1.1/DTD/svg11.dtd">
<!--Generator: Xara Designer (www.xara.com), SVG filter version: 3.0.2.3-->
<svg stroke-width="0.501" stroke-linejoin="bevel" fill-rule="evenodd" xmlns:xlink="http://www.w3.org/1999/xlink" xmlns="http://www.w3.org/2000/svg" version="1.1" overflow="visible" width="96pt" height="72pt" viewBox="0 0 96 72">
 <defs>
  <marker id="DefaultArrow2" markerUnits="strokeWidth" viewBox="0 0 1 1" markerWidth="1" markerHeight="1" overflow="visible" orient="auto">
   <!-- REF_ARROW_STRAIGHT (-2) -->
   <g transform="scale(0.0092592592)">
    <!-- 1/108 -->
    <path d="M -9 54 L -9 -54 L 117 0 z"/>
   </g>
  </marker>
  <marker id="DefaultArrow3" markerUnits="strokeWidth" viewBox="0 0 1 1" markerWidth="1" markerHeight="1" overflow="visible" orient="auto">
   <!-- REF_ARROW_ANGLED -->
   <g transform="scale(0.0092592592)">
    <path d="M -27 54 L -9 0 L -27 -54 L 135 0 z"/>
   </g>
  </marker>
  <marker id="DefaultArrow4" markerUnits="strokeWidth" viewBox="0 0 1 1" markerWidth="1" markerHeight="1" overflow="visible" orient="auto">
   <!-- REF_ARROW_ROUNDED -->
   <g transform="scale(0.0092592592)">
    <path d="M -9,0 L -9,-45 C -9,-51.708 2.808,-56.580 9,-54 L 117,-9 C 120.916,-7.369 126.000,-4.242 126,0 C 126,4.242 120.916,7.369 117,9 L 9,54 C 2.808,56.580 -9,51.708 -9,45 z"/>
   </g>
  </marker>
  <marker id="DefaultArrow5" markerUnits="strokeWidth" viewBox="0 0 1 1" markerWidth="1" markerHeight="1" overflow="visible" orient="auto">
   <!-- REF_ARROW_SPOT -->
   <g transform="scale(0.0092592592)">
    <path d="M -54, 0 C -54,29.807 -29.807,54 0,54 C 29.807,54 54,29.807 54,0 C 54,-29.807 29.807,-54 0,-54 C -29.807,-54 -54,-29.807 -54,0 z"/>
   </g>
  </marker>
  <marker id="DefaultArrow6" markerUnits="strokeWidth" viewBox="0 0 1 1" markerWidth="1" markerHeight="1" overflow="visible" orient="auto">
   <!-- REF_ARROW_DIAMOND -->
   <g transform="scale(0.0092592592)">
    <path d="M -63,0 L 0,63 L 63,0 L 0,-63 z"/>
   </g>
  </marker>
  <marker id="DefaultArrow7" markerUnits="strokeWidth" viewBox="0 0 1 1" markerWidth="1" markerHeight="1" overflow="visible" orient="auto">
   <!-- REF_ARROW_FEATHER -->
   <g transform="scale(0.0092592592)">
    <path d="M 18,-54 L 108,-54 L 63,0 L 108,54 L 18, 54 L -36,0 z"/>
   </g>
  </marker>
  <marker id="DefaultArrow8" markerUnits="strokeWidth" viewBox="0 0 1 1" markerWidth="1" markerHeight="1" overflow="visible" orient="auto">
   <!-- REF_ARROW_FEATHER2 -->
   <g transform="scale(0.0092592592)">
    <path d="M -36,0 L 18,-54 L 54,-54 L 18,-18 L 27,-18 L 63,-54 L 99,-54 L 63,-18 L 72,-18 L 108,-54 L 144,-54 L 90,0 L 144,54 L 108,54 L 72,18 L 63,18 L 99,54 L 63,54 L 27,18 L 18,18 L 54,54 L 18,54 z"/>
   </g>
  </marker>
  <marker id="DefaultArrow9" markerUnits="strokeWidth" viewBox="0 0 1 1" markerWidth="1" markerHeight="1" overflow="visible" orient="auto">
   <!-- REF_ARROW_HOLLOWDIAMOND -->
   <g transform="scale(0.0092592592)">
    <path d="M 0,45 L -45,0 L 0, -45 L 45, 0 z M 0, 63 L-63, 0 L 0, -63 L 63, 0 z"/>
   </g>
  </marker>
  <filter id="StainedFilter">
   <feBlend mode="multiply" in2="BackgroundImage" in="SourceGraphic" result="blend"/>
   <feComposite in="blend" in2="SourceAlpha" operator="in" result="comp"/>
  </filter>
  <filter id="BleachFilter">
   <feBlend mode="screen" in2="BackgroundImage" in="SourceGraphic" result="blend"/>
   <feComposite in="blend" in2="SourceAlpha" operator="in" result="comp"/>
  </filter>
  <filter id="InvertTransparencyBitmapFilter">
   <feComponentTransfer>
    <feFuncR type="gamma" amplitude="1.055" exponent=".416666666" offset="-0.055"/>
    <feFuncG type="gamma" amplitude="1.055" exponent=".416666666" offset="-0.055"/>
    <feFuncB type="gamma" amplitude="1.055" exponent=".416666666" offset="-0.055"/>
   </feComponentTransfer>
   <feComponentTransfer>
    <feFuncR type="linear" slope="-1" intercept="1"/>
    <feFuncG type="linear" slope="-1" intercept="1"/>
    <feFuncB type="linear" slope="-1" intercept="1"/>
    <feFuncA type="linear" slope="1" intercept="0"/>
   </feComponentTransfer>
   <feComponentTransfer>
    <feFuncR type="gamma" amplitude="1" exponent="2.4" offset="0"/>
    <feFuncG type="gamma" amplitude="1" exponent="2.4" offset="0"/>
    <feFuncB type="gamma" amplitude="1" exponent="2.4" offset="0"/>
   </feComponentTransfer>
  </filter>
 </defs>
 <g id="Document" fill="none" stroke="black" font-family="Times New Roman" font-size="16" transform="scale(1 -1)">
  <g id="Spread" transform="translate(0 -72)">
   <g id="Layer 2">
    <path d="M 13.271,18.147 L 13.271,53.192 C 13.271,57.62 16.865,61.215 21.294,61.215 L 56.832,61.192 L 58.107,61.161 C 59.466,60.984 60.783,60.374 61.827,59.331 L 80.933,40.225 C 83.446,37.711 83.446,33.63 80.933,31.117 L 61.827,12.012 C 60.787,10.971 59.479,10.361 58.125,10.182 L 56.862,10.144 L 21.294,10.124 C 16.865,10.124 13.271,13.718 13.271,18.147 Z M 21.292,12.349 L 56.853,12.366 L 56.896,12.357 L 56.941,12.363 C 58.131,12.27 59.348,12.678 60.253,13.583 L 79.359,32.69 C 81.004,34.334 81.004,37.007 79.359,38.651 L 60.253,57.757 C 59.343,58.668 58.12,59.075 56.924,58.976 L 56.879,58.972 L 21.292,58.991 C 18.094,58.991 15.495,56.391 15.495,53.192 L 15.495,18.147 C 15.495,14.947 18.094,12.349 21.292,12.349 Z" stroke="none" fill="#9ab3c1" stroke-width="0.5" fill-rule="evenodd" marker-start="none" marker-end="none" stroke-miterlimit="79.8403193612775"/>
    <path d="M 26.082,35.669 C 26.082,39.04 26.678,41.637 27.869,43.459 C 29.061,45.281 30.898,46.192 33.378,46.192 C 34.734,46.192 35.883,45.939 36.822,45.436 C 37.763,44.932 38.522,44.22 39.104,43.299 C 39.684,42.379 40.102,41.275 40.354,39.986 C 40.605,38.698 40.731,37.258 40.731,35.669 C 40.731,32.297 40.135,29.701 38.944,27.879 C 37.751,26.058 35.896,25.147 33.378,25.147 C 32.04,25.147 30.907,25.399 29.977,25.902 C 29.047,26.406 28.291,27.118 27.709,28.039 C 27.128,28.959 26.711,30.064 26.46,31.352 C 26.207,32.641 26.082,34.081 26.082,35.669 Z M 28.637,35.669 C 28.637,34.545 28.71,33.479 28.855,32.471 C 29,31.464 29.257,30.577 29.625,29.812 C 29.994,29.047 30.478,28.436 31.08,27.98 C 31.681,27.525 32.447,27.297 33.378,27.297 C 35.045,27.297 36.261,27.976 37.027,29.333 C 37.793,30.688 38.176,32.801 38.176,35.669 C 38.176,36.773 38.104,37.835 37.958,38.852 C 37.813,39.87 37.556,40.761 37.188,41.526 C 36.818,42.292 36.324,42.903 35.705,43.358 C 35.084,43.814 34.308,44.041 33.378,44.041 C 31.73,44.041 30.527,43.358 29.771,41.992 C 29.015,40.625 28.637,38.517 28.637,35.669 Z" stroke="none" fill="#9ab3c1" fill-rule="nonzero" stroke-linejoin="round" stroke-linecap="round" stroke-width="0.25" marker-start="none" marker-end="none" stroke-miterlimit="79.8403193612775"/>
    <path d="M 49.252,34.913 L 47.013,34.913 L 47.013,25.494 L 44.599,25.494 L 44.599,45.844 L 47.013,45.844 L 47.013,36.773 L 49.194,36.773 L 55.735,45.844 L 58.526,45.844 L 51.345,36.163 L 59.428,25.494 L 56.375,25.494 L 49.252,34.913 Z" stroke="none" fill="#9ab3c1" fill-rule="nonzero" stroke-linejoin="round" stroke-linecap="round" stroke-width="0.25" marker-start="none" marker-end="none" stroke-miterlimit="79.8403193612775"/>
   </g>
  </g>
 </g>
</svg>
